<svg version="1.1" id="Layer_1" xmlns="http://www.w3.org/2000/svg" xmlns:xlink="http://www.w3.org/1999/xlink" x="0px" y="0px"
	 width="100%" viewBox="0 0 7254 7255" enable-background="new 0 0 7254 7255" xml:space="preserve">
<path fill="#FFFFFF" opacity="1.000000" stroke="none" 
	d="
M3288.000000,7260.000000 
	C2192.000000,7260.000000 1098.000000,7260.000000 4.000000,7260.000000 
	C4.000000,4841.333496 4.000000,2422.666748 4.000000,4.000001 
	C2422.666748,4.000000 4841.333496,4.000000 7260.000000,4.000000 
	C7260.000000,2422.666748 7260.000000,4841.333496 7260.000000,7260.000000 
	C5936.666504,7260.000000 4613.333496,7260.000000 3288.000000,7260.000000 
M4130.000000,5519.459961 
	C4283.244141,5519.459961 4436.488770,5519.459961 4590.750488,5519.459961 
	C4956.692383,4321.340820 5322.337402,3124.193115 5687.901367,1927.020996 
	C5688.426758,1925.300659 5687.727539,1923.206421 5687.591309,1921.153076 
	C5685.387207,1920.788574 5683.437988,1920.183716 5681.489258,1920.184326 
	C5452.189453,1920.263672 5222.889160,1920.387085 4993.589355,1920.539429 
	C4992.982422,1920.539917 4992.357910,1920.962036 4991.772461,1921.250000 
	C4991.176270,1921.543945 4990.618164,1921.915405 4989.762695,1922.417358 
	C4988.128418,1927.206177 4986.284668,1932.188599 4984.717773,1937.256714 
	C4923.188477,2136.262207 4861.701660,2335.281006 4800.173828,2534.286865 
	C4695.202148,2873.806641 4590.200684,3213.317139 4485.225586,3552.835693 
	C4371.594238,3920.351318 4257.975586,4287.870605 4144.358398,4655.390625 
	C4122.932617,4724.698730 4101.552246,4794.020508 4080.090820,4863.317871 
	C4079.055908,4866.660156 4079.477295,4871.595215 4073.152588,4870.910645 
	C3775.132812,3890.390869 3477.088867,2909.792480 3179.018066,1929.202271 
	C3178.441895,1927.306885 3177.481934,1925.523315 3176.638184,1923.717041 
	C3176.360596,1923.122559 3175.931885,1922.578003 3175.486572,1922.088867 
	C3175.067871,1921.629150 3174.536133,1921.272705 3173.128174,1920.099243 
	C3166.750244,1920.099243 3159.443359,1920.099243 3152.136475,1920.099243 
	C2984.821289,1920.099243 2817.506104,1920.099121 2650.190918,1920.099243 
	C2597.530029,1920.099243 2544.869141,1920.069092 2492.208252,1920.150146 
	C2487.259277,1920.157715 2481.998047,1919.197998 2476.571289,1922.153442 
	C2478.747070,1929.365356 2480.636475,1935.699585 2482.567627,1942.020996 
	C2568.318359,2222.706055 2654.083984,2503.385986 2739.823730,2784.074219 
	C2845.784912,3130.961182 2951.687012,3477.866455 3057.683838,3824.742676 
	C3173.014893,4202.166504 3288.430420,4579.564453 3403.798828,4956.976562 
	C3459.830078,5140.274902 3515.828613,5323.583008 3571.914062,5506.864746 
	C3573.219238,5511.130371 3575.380127,5515.134766 3577.227295,5519.459961 
	C3760.741211,5519.459961 3943.370605,5519.459961 4130.000000,5519.459961 
M2907.697998,3458.265137 
	C2905.078613,3450.021973 2902.423584,3441.789551 2899.845215,3433.533691 
	C2841.278320,3246.011963 2782.732910,3058.483643 2724.154541,2870.965332 
	C2688.610107,2757.182861 2652.974609,2643.428467 2617.453857,2529.638428 
	C2556.930420,2335.753174 2496.471436,2141.847900 2435.931885,1947.967651 
	C2434.785400,1944.295776 2432.985352,1940.828125 2431.032471,1936.173950 
	C2417.567627,1940.261597 2404.949219,1944.013794 2392.378906,1947.921387 
	C2322.432861,1969.665527 2252.469971,1991.357788 2182.615479,2013.392822 
	C2177.261719,2015.081543 2170.373047,2014.848511 2166.140869,2023.116089 
	C2181.010498,2074.002930 2197.961670,2125.797607 2213.981445,2177.865234 
	C2230.039551,2230.058105 2246.642822,2282.083496 2262.950928,2334.199707 
	C2279.259521,2386.316895 2295.527100,2438.446777 2311.760010,2490.587402 
	C2328.190186,2543.361816 2344.497803,2596.174316 2360.968994,2648.935791 
	C2377.241943,2701.063232 2393.681152,2753.138916 2409.994629,2805.253906 
	C2426.306885,2857.366455 2442.701416,2909.454102 2458.787842,2961.636475 
	C2474.804199,3013.590820 2491.692627,3065.287598 2508.271484,3121.797119 
	C2315.893555,3018.353271 2127.515381,2916.375000 1938.910767,2814.823242 
	C1749.501709,2712.838379 1560.302002,2610.464844 1370.030762,2507.732666 
	C1365.931885,2514.550293 1362.446533,2520.131104 1359.168457,2525.831543 
	C1304.023682,2621.726318 1248.891479,2717.627930 1193.785034,2813.544922 
	C1156.937256,2877.681396 1120.100342,2941.823975 1083.377075,3006.031738 
	C1080.546387,3010.980713 1075.817749,3015.434814 1077.317261,3022.836426 
	C1083.431030,3026.299561 1089.712280,3030.006348 1096.125732,3033.468262 
	C1246.229858,3114.499512 1396.338135,3195.522705 1546.466309,3276.509277 
	C1742.922485,3382.487793 1939.394897,3488.436523 2135.863281,3594.392334 
	C2171.638184,3613.686279 2207.459473,3632.895264 2243.168213,3652.311035 
	C2247.601807,3654.721680 2253.546143,3655.815918 2254.852783,3663.361328 
	C2227.672363,3671.811768 2200.395508,3680.261230 2173.138672,3688.774414 
	C2146.443848,3697.112793 2119.769531,3705.516113 2093.086182,3713.891602 
	C2065.766602,3722.466797 2038.455688,3731.071045 2011.124390,3739.609863 
	C1983.792847,3748.148682 1956.434814,3756.602539 1929.099609,3765.129883 
	C1901.767334,3773.656494 1874.451904,3782.236572 1847.124146,3790.777832 
	C1820.429565,3799.121094 1793.730469,3807.449951 1767.030151,3815.774658 
	C1739.694092,3824.298096 1712.350220,3832.796143 1685.017456,3841.329590 
	C1657.686890,3849.862793 1630.370239,3858.440186 1603.039429,3866.972656 
	C1576.341919,3875.306641 1549.631348,3883.599121 1522.931030,3891.925293 
	C1495.595703,3900.449463 1468.258423,3908.967529 1440.936035,3917.533691 
	C1413.614014,3926.099854 1386.329590,3934.786377 1358.991821,3943.301514 
	C1331.655151,3951.816406 1304.256348,3960.130859 1276.915527,3968.632324 
	C1250.209595,3976.936035 1223.441895,3985.059814 1196.886230,3993.823486 
	C1169.893188,4002.730957 1142.078003,4009.290283 1116.519775,4019.900879 
	C1116.045288,4022.867188 1115.596680,4024.159424 1115.694214,4025.409180 
	C1115.848633,4027.387207 1116.169678,4029.398926 1116.761963,4031.289551 
	C1173.296631,4211.753418 1229.862915,4392.207520 1286.454346,4572.653809 
	C1286.642578,4573.253906 1287.159058,4573.804199 1287.643188,4574.244141 
	C1288.117432,4574.675781 1288.746582,4574.936523 1290.616577,4576.055664 
	C1294.596680,4575.016113 1299.674194,4573.906250 1304.618286,4572.368164 
	C1386.640137,4546.853027 1468.655029,4521.315430 1550.652588,4495.722656 
	C1759.780640,4430.450195 1968.901611,4365.154785 2178.019531,4299.849609 
	C2226.960693,4284.564941 2275.864502,4269.161621 2324.824951,4253.939453 
	C2329.468262,4252.496094 2334.204590,4249.346191 2340.443359,4252.906738 
	C2338.658691,4256.763184 2337.130371,4260.374023 2335.354492,4263.859375 
	C2292.699219,4347.565918 2249.967285,4431.233398 2207.351074,4514.960449 
	C2110.633057,4704.979492 2013.971436,4895.027344 1917.282837,5085.061523 
	C1888.276733,5142.071289 1859.199463,5199.045410 1830.327148,5256.123047 
	C1827.155884,5262.392578 1822.110840,5268.268555 1823.216431,5277.367676 
	C1830.283325,5280.826172 1837.364136,5284.375000 1844.515015,5287.776855 
	C1944.380127,5335.293945 2044.261597,5382.776367 2144.124268,5430.298828 
	C2209.096680,5461.217773 2274.018066,5492.243652 2339.052002,5523.032715 
	C2344.199219,5525.468750 2349.117676,5529.955078 2356.906006,5527.284180 
	C2359.656006,5522.186523 2362.905273,5516.448242 2365.894531,5510.577637 
	C2442.384521,5360.355957 2518.866211,5210.129883 2595.308838,5059.884277 
	C2685.650146,4882.319824 2775.954102,4704.737305 2866.272705,4527.161133 
	C2881.074219,4498.059570 2895.841064,4468.940430 2910.697754,4439.867188 
	C2912.096924,4437.128906 2912.899414,4433.301270 2918.499023,4434.338867 
	C2959.691650,4566.006348 3001.073975,4698.088867 3042.332520,4830.210449 
	C3083.621094,4962.428711 3124.681885,5094.718262 3166.033691,5226.916992 
	C3207.351074,5359.006836 3248.345215,5491.199707 3289.861816,5622.954590 
	C3307.915039,5620.542480 3541.059570,5547.646484 3556.668701,5539.538086 
	C3555.047607,5533.540527 3553.553223,5527.179688 3551.612549,5520.957031 
	C3528.216064,5445.939941 3504.738770,5370.948242 3481.312500,5295.940430 
	C3427.908691,5124.945801 3374.518311,4953.946777 3321.128174,4782.948242 
	C3269.127197,4616.398926 3217.144775,4449.844238 3165.131836,4283.298828 
	C3133.367432,4181.588867 3101.536621,4079.899902 3069.780518,3978.187744 
	C3015.995361,3805.918945 2962.245605,3633.639404 2907.697998,3458.265137 
z"/>
<path fill="#060809" opacity="1.000000" stroke="none" 
	d="
M4128.000000,5519.459961 
	C3943.370605,5519.459961 3760.741211,5519.459961 3577.227295,5519.459961 
	C3575.380127,5515.134766 3573.219238,5511.130371 3571.914062,5506.864746 
	C3515.828613,5323.583008 3459.830078,5140.274902 3403.798828,4956.976562 
	C3288.430420,4579.564453 3173.014893,4202.166504 3057.683838,3824.742676 
	C2951.687012,3477.866455 2845.784912,3130.961182 2739.823730,2784.074219 
	C2654.083984,2503.385986 2568.318359,2222.706055 2482.567627,1942.020996 
	C2480.636475,1935.699585 2478.747070,1929.365356 2476.571289,1922.153442 
	C2481.998047,1919.197998 2487.259277,1920.157715 2492.208252,1920.150146 
	C2544.869141,1920.069092 2597.530029,1920.099243 2650.190918,1920.099243 
	C2817.506104,1920.099121 2984.821289,1920.099243 3152.136475,1920.099243 
	C3159.443359,1920.099243 3166.750244,1920.099243 3173.128174,1920.099243 
	C3174.536133,1921.272705 3175.067871,1921.629150 3175.486572,1922.088867 
	C3175.931885,1922.578003 3176.360596,1923.122559 3176.638184,1923.717041 
	C3177.481934,1925.523315 3178.441895,1927.306885 3179.018066,1929.202271 
	C3477.088867,2909.792480 3775.132812,3890.390869 4073.152588,4870.910645 
	C4079.477295,4871.595215 4079.055908,4866.660156 4080.090820,4863.317871 
	C4101.552246,4794.020508 4122.932617,4724.698730 4144.358398,4655.390625 
	C4257.975586,4287.870605 4371.594238,3920.351318 4485.225586,3552.835693 
	C4590.200684,3213.317139 4695.202148,2873.806641 4800.173828,2534.286865 
	C4861.701660,2335.281006 4923.188477,2136.262207 4984.717773,1937.256714 
	C4986.284668,1932.188599 4988.128418,1927.206177 4989.762695,1922.417358 
	C4990.618164,1921.915405 4991.176270,1921.543945 4991.772461,1921.250000 
	C4992.357910,1920.962036 4992.982422,1920.539917 4993.589355,1920.539429 
	C5222.889160,1920.387085 5452.189453,1920.263672 5681.489258,1920.184326 
	C5683.437988,1920.183716 5685.387207,1920.788574 5687.591309,1921.153076 
	C5687.727539,1923.206421 5688.426758,1925.300659 5687.901367,1927.020996 
	C5322.337402,3124.193115 4956.692383,4321.340820 4590.750488,5519.459961 
	C4436.488770,5519.459961 4283.244141,5519.459961 4128.000000,5519.459961 
z"/>
<path fill="#7EC243" opacity="1.000000" stroke="none" 
	d="
M2908.089355,3459.814697 
	C2962.245605,3633.639404 3015.995361,3805.918945 3069.780518,3978.187744 
	C3101.536621,4079.899902 3133.367432,4181.588867 3165.131836,4283.298828 
	C3217.144775,4449.844238 3269.127197,4616.398926 3321.128174,4782.948242 
	C3374.518311,4953.946777 3427.908691,5124.945801 3481.312500,5295.940430 
	C3504.738770,5370.948242 3528.216064,5445.939941 3551.612549,5520.957031 
	C3553.553223,5527.179688 3555.047607,5533.540527 3556.668701,5539.538086 
	C3541.059570,5547.646484 3307.915039,5620.542480 3289.861816,5622.954590 
	C3248.345215,5491.199707 3207.351074,5359.006836 3166.033691,5226.916992 
	C3124.681885,5094.718262 3083.621094,4962.428711 3042.332520,4830.210449 
	C3001.073975,4698.088867 2959.691650,4566.006348 2918.499023,4434.338867 
	C2912.899414,4433.301270 2912.096924,4437.128906 2910.697754,4439.867188 
	C2895.841064,4468.940430 2881.074219,4498.059570 2866.272705,4527.161133 
	C2775.954102,4704.737305 2685.650146,4882.319824 2595.308838,5059.884277 
	C2518.866211,5210.129883 2442.384521,5360.355957 2365.894531,5510.577637 
	C2362.905273,5516.448242 2359.656006,5522.186523 2356.906006,5527.284180 
	C2349.117676,5529.955078 2344.199219,5525.468750 2339.052002,5523.032715 
	C2274.018066,5492.243652 2209.096680,5461.217773 2144.124268,5430.298828 
	C2044.261597,5382.776367 1944.380127,5335.293945 1844.515015,5287.776855 
	C1837.364136,5284.375000 1830.283325,5280.826172 1823.216431,5277.367676 
	C1822.110840,5268.268555 1827.155884,5262.392578 1830.327148,5256.123047 
	C1859.199463,5199.045410 1888.276733,5142.071289 1917.282837,5085.061523 
	C2013.971436,4895.027344 2110.633057,4704.979492 2207.351074,4514.960449 
	C2249.967285,4431.233398 2292.699219,4347.565918 2335.354492,4263.859375 
	C2337.130371,4260.374023 2338.658691,4256.763184 2340.443359,4252.906738 
	C2334.204590,4249.346191 2329.468262,4252.496094 2324.824951,4253.939453 
	C2275.864502,4269.161621 2226.960693,4284.564941 2178.019531,4299.849609 
	C1968.901611,4365.154785 1759.780640,4430.450195 1550.652588,4495.722656 
	C1468.655029,4521.315430 1386.640137,4546.853027 1304.618286,4572.368164 
	C1299.674194,4573.906250 1294.596680,4575.016113 1290.616577,4576.055664 
	C1288.746582,4574.936523 1288.117432,4574.675781 1287.643188,4574.244141 
	C1287.159058,4573.804199 1286.642578,4573.253906 1286.454346,4572.653809 
	C1229.862915,4392.207520 1173.296631,4211.753418 1116.761963,4031.289551 
	C1116.169678,4029.398926 1115.848633,4027.387207 1115.694214,4025.409180 
	C1115.596680,4024.159424 1116.045288,4022.867188 1116.519775,4019.900879 
	C1142.078003,4009.290283 1169.893188,4002.730957 1196.886230,3993.823486 
	C1223.441895,3985.059814 1250.209595,3976.936035 1276.915527,3968.632324 
	C1304.256348,3960.130859 1331.655151,3951.816406 1358.991821,3943.301514 
	C1386.329590,3934.786377 1413.614014,3926.099854 1440.936035,3917.533691 
	C1468.258423,3908.967529 1495.595703,3900.449463 1522.931030,3891.925293 
	C1549.631348,3883.599121 1576.341919,3875.306641 1603.039429,3866.972656 
	C1630.370239,3858.440186 1657.686890,3849.862793 1685.017456,3841.329590 
	C1712.350220,3832.796143 1739.694092,3824.298096 1767.030151,3815.774658 
	C1793.730469,3807.449951 1820.429565,3799.121094 1847.124146,3790.777832 
	C1874.451904,3782.236572 1901.767334,3773.656494 1929.099609,3765.129883 
	C1956.434814,3756.602539 1983.792847,3748.148682 2011.124390,3739.609863 
	C2038.455688,3731.071045 2065.766602,3722.466797 2093.086182,3713.891602 
	C2119.769531,3705.516113 2146.443848,3697.112793 2173.138672,3688.774414 
	C2200.395508,3680.261230 2227.672363,3671.811768 2254.852783,3663.361328 
	C2253.546143,3655.815918 2247.601807,3654.721680 2243.168213,3652.311035 
	C2207.459473,3632.895264 2171.638184,3613.686279 2135.863281,3594.392334 
	C1939.394897,3488.436523 1742.922485,3382.487793 1546.466309,3276.509277 
	C1396.338135,3195.522705 1246.229858,3114.499512 1096.125732,3033.468262 
	C1089.712280,3030.006348 1083.431030,3026.299561 1077.317261,3022.836426 
	C1075.817749,3015.434814 1080.546387,3010.980713 1083.377075,3006.031738 
	C1120.100342,2941.823975 1156.937256,2877.681396 1193.785034,2813.544922 
	C1248.891479,2717.627930 1304.023682,2621.726318 1359.168457,2525.831543 
	C1362.446533,2520.131104 1365.931885,2514.550293 1370.030762,2507.732666 
	C1560.302002,2610.464844 1749.501709,2712.838379 1938.910767,2814.823242 
	C2127.515381,2916.375000 2315.893555,3018.353271 2508.271484,3121.797119 
	C2491.692627,3065.287598 2474.804199,3013.590820 2458.787842,2961.636475 
	C2442.701416,2909.454102 2426.306885,2857.366455 2409.994629,2805.253906 
	C2393.681152,2753.138916 2377.241943,2701.063232 2360.968994,2648.935791 
	C2344.497803,2596.174316 2328.190186,2543.361816 2311.760010,2490.587402 
	C2295.527100,2438.446777 2279.259521,2386.316895 2262.950928,2334.199707 
	C2246.642822,2282.083496 2230.039551,2230.058105 2213.981445,2177.865234 
	C2197.961670,2125.797607 2181.010498,2074.002930 2166.140869,2023.116089 
	C2170.373047,2014.848511 2177.261719,2015.081543 2182.615479,2013.392822 
	C2252.469971,1991.357788 2322.432861,1969.665527 2392.378906,1947.921387 
	C2404.949219,1944.013794 2417.567627,1940.261597 2431.032471,1936.173950 
	C2432.985352,1940.828125 2434.785400,1944.295776 2435.931885,1947.967651 
	C2496.471436,2141.847900 2556.930420,2335.753174 2617.453857,2529.638428 
	C2652.974609,2643.428467 2688.610107,2757.182861 2724.154541,2870.965332 
	C2782.732910,3058.483643 2841.278320,3246.011963 2899.845215,3433.533691 
	C2902.423584,3441.789551 2905.078613,3450.021973 2908.089355,3459.814697 
z"/>
</svg>